<?xml version="1.0" encoding="UTF-8"?>
<svg width="136px" height="136px" viewBox="0 0 136 136" version="1.1" xmlns="http://www.w3.org/2000/svg" xmlns:xlink="http://www.w3.org/1999/xlink">
    <title>favicon@2x</title>
    <g id="favicon" stroke="none" stroke-width="1" fill="none" fill-rule="evenodd">
        <rect fill="#FFFFFF" x="0" y="0" width="136" height="136"></rect>
        <g id="icon-/logo" transform="translate(33.000000, 23.000000)" fill="#191C20">
            <path d="M66.1387967,51.1832239 C62.9948469,51.1802864 60.7594667,49.125105 58.1430464,47.5753786 C55.5255752,46.0248129 52.6411866,44.9299751 49.6538142,44.3489851 C43.4014333,43.132452 36.8325347,44.2348433 31.3170138,47.4148667 C25.7357094,50.6328675 21.4660829,55.8370191 19.4217484,61.9408764 C18.4148185,64.9473791 17.9240689,68.1649602 18.0623615,71.3355418 C18.2378544,75.3584099 18.4459238,79.1911816 14.992602,81.9702401 C12.0611352,84.3294499 7.86611945,84.6544602 4.60594492,82.7757369 C0.20391066,80.2388101 -1.29965359,74.6173277 1.24152552,70.2222399 C2.86530765,67.4140165 5.567688,66.6160731 8.237702,65.1888813 C10.9835878,63.7214041 13.4568816,61.6515354 15.4869245,59.3026067 C19.6230923,54.5168351 21.9248865,48.3231751 21.925517,42.0027841 C21.9261475,35.8674539 19.7693714,30.0189468 15.7435435,25.3802586 C13.7820163,23.1202934 11.4600457,21.1895349 8.95732794,19.554412 C6.19231659,17.7478667 2.97354578,16.7847954 1.23416953,13.7801811 C-1.30490786,9.3920173 0.198236039,3.7644501 4.60069064,1.23360802 C9.00734867,-1.30436793 14.6332094,0.199407997 17.1792224,4.59155833 C18.6886715,7.19541758 18.1676573,10.1952061 18.0684565,13.1188302 C17.9661031,16.129949 18.4427713,19.1473623 19.3946363,22.0053129 C21.4343471,28.1286835 25.715533,33.3609508 31.3128104,36.5867149 C36.5654072,39.6135701 42.7141737,40.7044214 48.6889186,39.666025 C51.7244201,39.1383291 54.6588294,38.0934283 57.379915,36.6565848 C60.3052869,35.1116842 62.6285186,32.80409 66.1411086,32.8070275 C71.2173719,32.8074471 75.3421904,36.9230555 75.3379942,41.9977484 C75.3442921,47.0695039 71.2222058,51.1876301 66.1387967,51.1832239" id="Fill-7"></path>
        </g>
    </g>
</svg>