<?xml version="1.0" standalone="no"?>
<!DOCTYPE svg PUBLIC "-//W3C//DTD SVG 20010904//EN"
 "http://www.w3.org/TR/2001/REC-SVG-20010904/DTD/svg10.dtd">
<svg version="1.0" xmlns="http://www.w3.org/2000/svg"
 width="700.000000pt" height="700.000000pt" viewBox="0 0 700.000000 700.000000"
 preserveAspectRatio="xMidYMid meet">
<metadata>
Created by potrace 1.11, written by Peter Selinger 2001-2013
</metadata>
<g transform="translate(0.000000,700.000000) scale(0.100000,-0.100000)"
fill="#000000" stroke="none">
<path d="M2095 5809 c-33 -5 -92 -25 -131 -44 -202 -99 -305 -323 -249 -540
37 -142 120 -230 324 -345 169 -95 281 -179 401 -300 220 -220 346 -484 380
-800 26 -229 -27 -516 -134 -727 -91 -182 -247 -370 -404 -488 -47 -35 -153
-99 -235 -141 -217 -113 -293 -190 -332 -339 -68 -263 97 -525 367 -581 201
-42 426 65 503 239 37 86 45 147 45 365 0 306 32 467 134 677 214 438 624 721
1113 767 309 29 609 -50 900 -238 122 -79 192 -111 266 -125 238 -44 491 148
526 397 37 255 -134 488 -389 534 -125 23 -217 -3 -387 -107 -291 -178 -489
-242 -773 -250 -153 -5 -190 -3 -290 17 -484 92 -880 442 -1035 914 -54 167
-69 281 -62 493 3 100 1 212 -4 249 -34 241 -277 411 -534 373z"/>
</g>
</svg>
