<?xml version="1.0" encoding="UTF-8"?>
<svg width="160px" height="49px" viewBox="0 0 160 49" version="1.1" xmlns="http://www.w3.org/2000/svg" xmlns:xlink="http://www.w3.org/1999/xlink">
    <title>btn_googlePlay</title>
    <g id="styleGuide" stroke="none" stroke-width="1" fill="none" fill-rule="evenodd">
        <g id="Artboard" transform="translate(-1619.000000, -1509.000000)">
            <g id="appStoreButton" transform="translate(1619.000000, 1509.000000)">
                <rect id="path-1" fill="#18B99A" x="0" y="0" width="160" height="48.5714286" rx="24.285714"></rect>
                <g id="icon-/android" transform="translate(18.000000, 12.000000)">
                    <g id="XMLID_39_" transform="translate(1.000000, 0.000000)" fill-rule="nonzero">
                        <path d="M15.6356757,15.7686486 L2.4,23.2897297 C1.66054054,23.7113514 0.998918919,23.6821622 0.574054054,23.2994595 L0.574054054,23.2994595 L0.505945946,23.3675676 L0.505945946,23.3675676 L0.574054054,23.4324324 L0.574054054,23.4324324 C0.998918919,23.8151351 1.66054054,23.8443243 2.4,23.4227027 L15.72,15.852973 L15.6356757,15.7686486 Z" id="XMLID_4_" fill="#000000" opacity="0.2"></path>
                        <path d="M0.502702703,23.2313514 C0.236756757,22.9491892 0.0810810811,22.5145946 0.0810810811,21.9502703 L0.0810810811,22.0832432 C0.0810810811,22.6475676 0.236756757,23.0821622 0.502702703,23.3643243 L0.570810811,23.2962162 L0.502702703,23.2313514 Z" id="XMLID_3_" fill="#000000" opacity="0.12"></path>
                        <path d="M20.1827027,13.1837838 L15.6356757,15.7686486 L15.72,15.852973 L20.1827027,13.3167568 C20.8183784,12.9535135 21.1394595,12.4767568 21.1394595,12 L21.1394595,12 C21.0843243,12.4313514 20.76,12.8562162 20.1827027,13.1837838 Z" id="XMLID_2_" fill="#000000" opacity="0.12"></path>
                        <path d="M2.4,0.713513514 L20.1827027,10.8162162 C20.76,11.1437838 21.0843168,11.5686486 21.1394595,12 L21.1394595,12 C21.1394595,11.5232432 20.8216216,11.0464865 20.1827027,10.6832432 L2.4,0.580540541 C1.12540541,-0.142702703 0.0843167905,0.457297297 0.0843167905,1.91675676 L0.0843167905,2.04972973 C0.0810810811,0.59027027 1.12540541,-0.00972972973 2.4,0.713513514 Z" id="XMLID_1_" fill="#FFFFFF" opacity="0.25"></path>
                    </g>
                    <path d="M13.637,12.3433309 L17.157,15.8663309 L4.09483006,23.2890338 L3.94497198,23.3684389 C3.40049605,23.6357298 2.91342144,23.6413126 2.56165779,23.4103572 L2.566,23.4133309 L13.637,12.3433309 Z M2.28376012,0.85697525 L13.427,11.9993309 L2.28276885,23.1430799 C2.10126459,22.8890219 2,22.5273017 2,22.0832432 L2,1.91675676 C2,1.47484473 2.10028799,1.11447693 2.28376012,0.85697525 Z M17.514,8.33633095 L21.8775072,10.8168976 L22.0126811,10.8985484 C23.0490147,11.565396 23.0039601,12.5504057 21.8775944,13.1895394 L17.515,15.6663309 L13.851,11.9993309 L17.514,8.33633095 Z M4.09478962,0.710943175 L17.158,8.13533095 L13.637,11.6563309 L2.566,0.585330949 L2.65987772,0.532380824 C3.03474093,0.344871821 3.54057402,0.395891154 4.09478962,0.710943175 Z" id="Combined-Shape" fill="#FFFFFF"></path>
                </g>
                <path d="M54.728,20.108 C57.104,20.108 58.748,18.74 58.748,15.68 L54.584,15.68 L54.584,17.036 L56.924,17.036 C56.912,17.108 56.9,17.18 56.876,17.24 C56.66,18.104 55.808,18.62 54.728,18.62 C53.288,18.62 52.172,17.348 52.172,15.872 C52.172,14.396 53.288,13.172 54.728,13.172 C55.448,13.172 56.108,13.484 56.576,13.988 L57.788,12.944 C57.068,12.14 55.976,11.624 54.728,11.624 C52.352,11.624 50.504,13.52 50.504,15.872 C50.504,18.212 52.352,20.108 54.728,20.108 Z M62.492,20.108 C63.476,20.108 64.46,19.724 64.988,19.016 L64.064,18.092 C63.728,18.488 63.164,18.716 62.6,18.716 C61.844,18.716 61.316,18.356 61.148,17.708 L65.372,17.708 C65.384,17.456 65.396,17.264 65.396,17.108 C65.396,15.392 64.088,14.264 62.492,14.264 C60.884,14.264 59.516,15.392 59.516,17.204 C59.516,18.932 60.776,20.108 62.492,20.108 Z M63.824,16.688 L61.148,16.688 C61.316,15.932 61.88,15.632 62.516,15.632 C63.224,15.632 63.776,16.028 63.824,16.688 Z M68.72,20 L68.72,15.62 L69.908,15.62 L69.908,14.408 L68.72,14.408 L68.72,12.356 L67.148,12.356 L67.148,14.408 L66.128,14.408 L66.128,15.62 L67.148,15.62 L67.148,20 L68.72,20 Z M74.564,13.412 C75.116,13.412 75.56,12.992 75.56,12.464 C75.56,11.936 75.116,11.528 74.564,11.528 C74.024,11.528 73.568,11.936 73.568,12.464 C73.568,12.992 74.024,13.412 74.564,13.412 Z M75.356,20 L75.356,14.408 L73.784,14.408 L73.784,20 L75.356,20 Z M79.052,20 L79.052,15.62 L80.24,15.62 L80.24,14.408 L79.052,14.408 L79.052,12.356 L77.48,12.356 L77.48,14.408 L76.46,14.408 L76.46,15.62 L77.48,15.62 L77.48,20 L79.052,20 Z M88.028,20.108 C90.368,20.108 92.24,18.212 92.24,15.872 C92.24,13.52 90.368,11.624 88.028,11.624 C85.676,11.624 83.828,13.52 83.828,15.872 C83.828,18.212 85.676,20.108 88.028,20.108 Z M88.028,18.548 C86.54,18.548 85.496,17.36 85.496,15.872 C85.496,14.384 86.54,13.196 88.028,13.196 C89.504,13.196 90.56,14.384 90.56,15.872 C90.56,17.36 89.504,18.548 88.028,18.548 Z M95.108,20 L95.108,17.132 C95.108,16.112 95.804,15.812 96.368,15.812 C96.908,15.812 97.436,16.208 97.436,17.096 L97.436,20 L99.008,20 L99.008,16.928 C99.02,15.248 98.252,14.264 96.788,14.264 C96.236,14.264 95.348,14.588 95.108,15.344 L95.108,14.408 L93.536,14.408 L93.536,20 L95.108,20 Z" id="GetitOn" fill="#FFFFFF" fill-rule="nonzero"></path>
                <path d="M55.516,37.126 C58.288,37.126 60.206,35.53 60.206,31.96 L55.348,31.96 L55.348,33.542 L58.078,33.542 C58.064,33.626 58.05,33.71 58.022,33.78 C57.77,34.788 56.776,35.39 55.516,35.39 C53.836,35.39 52.534,33.906 52.534,32.184 C52.534,30.462 53.836,29.034 55.516,29.034 C56.356,29.034 57.126,29.398 57.672,29.986 L59.086,28.768 C58.246,27.83 56.972,27.228 55.516,27.228 C52.744,27.228 50.588,29.44 50.588,32.184 C50.588,34.914 52.744,37.126 55.516,37.126 Z M65.102,37.126 C66.964,37.126 68.616,35.782 68.616,33.724 C68.616,31.652 66.964,30.308 65.102,30.308 C63.24,30.308 61.588,31.652 61.588,33.724 C61.588,35.782 63.24,37.126 65.102,37.126 Z M65.102,35.418 C64.192,35.418 63.45,34.732 63.45,33.724 C63.45,32.702 64.192,32.016 65.102,32.016 C66.012,32.016 66.754,32.702 66.754,33.724 C66.754,34.732 66.012,35.418 65.102,35.418 Z M73.666,37.126 C75.528,37.126 77.18,35.782 77.18,33.724 C77.18,31.652 75.528,30.308 73.666,30.308 C71.804,30.308 70.152,31.652 70.152,33.724 C70.152,35.782 71.804,37.126 73.666,37.126 Z M73.666,35.418 C72.756,35.418 72.014,34.732 72.014,33.724 C72.014,32.702 72.756,32.016 73.666,32.016 C74.576,32.016 75.318,32.702 75.318,33.724 C75.318,34.732 74.576,35.418 73.666,35.418 Z M82.118,40.29 C84.428,40.29 85.87,38.96 85.87,36.104 L85.87,30.476 L84.036,30.476 L84.036,31.246 C83.56,30.616 82.678,30.322 81.936,30.322 C80.256,30.322 78.73,31.624 78.73,33.724 C78.73,35.824 80.256,37.126 81.936,37.126 C82.664,37.126 83.56,36.832 84.036,36.202 L84.036,36.3 C84.036,38.008 83.294,38.652 82.118,38.652 C81.418,38.652 80.746,38.232 80.466,37.644 L78.94,38.302 C79.5,39.506 80.718,40.29 82.118,40.29 Z M82.286,35.418 C81.362,35.418 80.592,34.676 80.592,33.724 C80.592,32.758 81.362,32.044 82.286,32.044 C83.14,32.044 83.98,32.716 83.98,33.724 C83.98,34.718 83.182,35.418 82.286,35.418 Z M90.052,37 L90.052,26.99 L88.218,26.99 L88.218,37 L90.052,37 Z M95.48,37.126 C96.628,37.126 97.776,36.678 98.392,35.852 L97.314,34.774 C96.922,35.236 96.264,35.502 95.606,35.502 C94.724,35.502 94.108,35.082 93.912,34.326 L98.84,34.326 C98.854,34.032 98.868,33.808 98.868,33.626 C98.868,31.624 97.342,30.308 95.48,30.308 C93.604,30.308 92.008,31.624 92.008,33.738 C92.008,35.754 93.478,37.126 95.48,37.126 Z M97.034,33.136 L93.912,33.136 C94.108,32.254 94.766,31.904 95.508,31.904 C96.334,31.904 96.978,32.366 97.034,33.136 Z M106.812,37 L106.812,33.626 L108.8,33.626 C110.984,33.626 111.95,32.086 111.95,30.504 C111.95,28.922 110.984,27.354 108.8,27.354 L104.866,27.354 L104.866,37 L106.812,37 Z M108.702,31.918 L106.812,31.918 L106.812,29.076 L108.73,29.076 C109.64,29.076 109.99,29.804 109.99,30.504 C109.99,31.19 109.64,31.918 108.702,31.918 Z M115.6,37 L115.6,26.99 L113.766,26.99 L113.766,37 L115.6,37 Z M120.762,37.126 C121.49,37.126 122.4,36.832 122.862,36.188 L122.862,37 L124.696,37 L124.696,30.476 L122.862,30.476 L122.862,31.26 C122.4,30.602 121.518,30.322 120.762,30.322 C119.082,30.322 117.556,31.624 117.556,33.724 C117.556,35.824 119.082,37.126 120.762,37.126 Z M121.112,35.418 C120.188,35.418 119.418,34.676 119.418,33.724 C119.418,32.758 120.188,32.044 121.112,32.044 C121.966,32.044 122.806,32.716 122.806,33.724 C122.806,34.718 122.008,35.418 121.112,35.418 Z M129.2,40.206 L133.232,30.476 L131.258,30.476 L129.76,34.242 L128.22,30.476 L126.204,30.476 L128.78,36.384 L127.24,40.206 L129.2,40.206 Z" id="GooglePlay" fill="#FFFFFF" fill-rule="nonzero"></path>
            </g>
        </g>
    </g>
</svg>