<?xml version="1.0" encoding="UTF-8"?>
<svg width="160px" height="49px" viewBox="0 0 160 49" version="1.1" xmlns="http://www.w3.org/2000/svg" xmlns:xlink="http://www.w3.org/1999/xlink">
    <title>btn_appStore</title>
    <g id="styleGuide" stroke="none" stroke-width="1" fill="none" fill-rule="evenodd">
        <g id="Artboard" transform="translate(-1439.000000, -1509.000000)">
            <g id="appStoreButton" transform="translate(1439.000000, 1509.000000)">
                <rect id="path-1" fill="#18B99A" x="0" y="0" width="160" height="48.5714286" rx="24.285714"></rect>
                <g id="icon-/android" transform="translate(18.000000, 12.000000)" fill="#FFFFFF">
                    <path d="M18.2566359,19.5474338 C17.4585158,20.7509041 16.6323369,21.9506272 15.3279095,21.9737348 C14.0459292,21.9987161 13.6343986,21.189949 12.1703472,21.189949 C10.7050488,21.189949 10.2467533,21.9506272 9.03398498,21.9987161 C7.77632243,22.0474294 6.81795485,20.7009416 6.01422307,19.5012185 C4.36872407,17.0493117 3.11355561,12.571428 4.80145475,9.54870032 C5.63698661,8.04607987 7.13470877,7.09804261 8.75963121,7.07181233 C9.99609368,7.04808016 11.1627206,7.93179081 11.91657,7.93179081 C12.673537,7.93179081 14.0908235,6.87008892 15.5810632,7.0268461 C16.2045945,7.05307638 17.9560938,7.28602629 19.0803206,8.98287567 C18.9905321,9.04220605 16.9902439,10.2425537 17.013938,12.7444229 C17.0401263,15.7328014 19.5529574,16.7245559 19.5816397,16.7395446 C19.5591926,16.808243 19.1788386,18.1559798 18.2566359,19.5474338 Z M12.6579486,3.44141646 C13.4342451,2.63639666 14.7461548,2.03872092 15.8292287,2 C15.9676526,3.11603606 15.4594746,4.23457022 14.7081195,5.04021453 C13.9561407,5.84398532 12.7227959,6.47038946 11.5137688,6.38795141 C11.3510272,5.29439851 11.9602171,4.15463028 12.6579486,3.44141646 Z" id="Fill-193"></path>
                </g>
                <path d="M54.248,20 C56.624,20 58.004,18.224 58.004,15.884 C58.004,13.532 56.624,11.732 54.248,11.732 L51.008,11.732 L51.008,20 L54.248,20 Z M54.248,18.524 L52.676,18.524 L52.676,13.208 L54.248,13.208 C55.628,13.208 56.336,14.468 56.336,15.884 C56.336,17.3 55.628,18.524 54.248,18.524 Z M62,20.108 C63.596,20.108 65.012,18.956 65.012,17.192 C65.012,15.416 63.596,14.264 62,14.264 C60.404,14.264 58.988,15.416 58.988,17.192 C58.988,18.956 60.404,20.108 62,20.108 Z M62,18.644 C61.22,18.644 60.584,18.056 60.584,17.192 C60.584,16.316 61.22,15.728 62,15.728 C62.78,15.728 63.416,16.316 63.416,17.192 C63.416,18.056 62.78,18.644 62,18.644 Z M68.9,20 L70.016,16.364 L71.168,20 L72.512,20 L74.492,14.408 L72.788,14.408 L71.732,17.816 L70.664,14.408 L69.344,14.408 L68.276,17.816 L67.22,14.408 L65.516,14.408 L67.556,20 L68.9,20 Z M76.94,20 L76.94,17.132 C76.94,16.112 77.636,15.812 78.2,15.812 C78.74,15.812 79.268,16.208 79.268,17.096 L79.268,20 L80.84,20 L80.84,16.928 C80.852,15.248 80.084,14.264 78.62,14.264 C78.068,14.264 77.18,14.588 76.94,15.344 L76.94,14.408 L75.368,14.408 L75.368,20 L76.94,20 Z M83.924,20 L83.924,11.42 L82.352,11.42 L82.352,20 L83.924,20 Z M88.172,20.108 C89.768,20.108 91.184,18.956 91.184,17.192 C91.184,15.416 89.768,14.264 88.172,14.264 C86.576,14.264 85.16,15.416 85.16,17.192 C85.16,18.956 86.576,20.108 88.172,20.108 Z M88.172,18.644 C87.392,18.644 86.756,18.056 86.756,17.192 C86.756,16.316 87.392,15.728 88.172,15.728 C88.952,15.728 89.588,16.316 89.588,17.192 C89.588,18.056 88.952,18.644 88.172,18.644 Z M94.832,20.108 C95.456,20.108 96.236,19.856 96.632,19.304 L96.632,20 L98.204,20 L98.204,14.408 L96.632,14.408 L96.632,15.08 C96.236,14.516 95.48,14.276 94.832,14.276 C93.392,14.276 92.084,15.392 92.084,17.192 C92.084,18.992 93.392,20.108 94.832,20.108 Z M95.132,18.644 C94.34,18.644 93.68,18.008 93.68,17.192 C93.68,16.364 94.34,15.752 95.132,15.752 C95.864,15.752 96.584,16.328 96.584,17.192 C96.584,18.044 95.9,18.644 95.132,18.644 Z M102.2,20.108 C102.824,20.108 103.604,19.856 104,19.304 L104,20 L105.572,20 L105.572,11.42 L104,11.42 L104,15.08 C103.604,14.516 102.848,14.276 102.2,14.276 C100.76,14.276 99.452,15.392 99.452,17.192 C99.452,18.992 100.76,20.108 102.2,20.108 Z M102.5,18.644 C101.708,18.644 101.048,18.008 101.048,17.192 C101.048,16.364 101.708,15.752 102.5,15.752 C103.232,15.752 103.952,16.328 103.952,17.192 C103.952,18.044 103.268,18.644 102.5,18.644 Z" id="Download" fill="#FFFFFF" fill-rule="nonzero"></path>
                <path d="M53.122,37 L53.122,27.354 L51.176,27.354 L51.176,37 L53.122,37 Z M57.5,37 L57.5,33.654 C57.5,32.464 58.312,32.114 58.97,32.114 C59.6,32.114 60.216,32.576 60.216,33.612 L60.216,37 L62.05,37 L62.05,33.416 C62.064,31.456 61.168,30.308 59.46,30.308 C58.816,30.308 57.78,30.686 57.5,31.568 L57.5,30.476 L55.666,30.476 L55.666,37 L57.5,37 Z M68.888,37 L69.658,34.69 L73.27,34.69 L74.054,37 L76.098,37 L72.514,27.354 L70.414,27.354 L66.816,37 L68.888,37 Z M72.682,32.996 L70.232,32.996 L71.45,29.37 L72.682,32.996 Z M79.286,40.206 L79.286,36.188 C79.748,36.846 80.644,37.126 81.386,37.126 C83.066,37.126 84.592,35.824 84.592,33.724 C84.592,31.624 83.066,30.308 81.386,30.308 C80.644,30.308 79.748,30.602 79.286,31.26 L79.286,30.476 L77.452,30.476 L77.452,40.206 L79.286,40.206 Z M81.036,35.404 C80.182,35.404 79.342,34.732 79.342,33.724 C79.342,32.73 80.14,32.03 81.036,32.03 C81.96,32.03 82.716,32.772 82.716,33.724 C82.716,34.69 81.96,35.404 81.036,35.404 Z M88.382,40.206 L88.382,36.188 C88.844,36.846 89.74,37.126 90.482,37.126 C92.162,37.126 93.688,35.824 93.688,33.724 C93.688,31.624 92.162,30.308 90.482,30.308 C89.74,30.308 88.844,30.602 88.382,31.26 L88.382,30.476 L86.548,30.476 L86.548,40.206 L88.382,40.206 Z M90.132,35.404 C89.278,35.404 88.438,34.732 88.438,33.724 C88.438,32.73 89.236,32.03 90.132,32.03 C91.056,32.03 91.812,32.772 91.812,33.724 C91.812,34.69 91.056,35.404 90.132,35.404 Z M102.654,37.126 C104.474,37.126 106.112,36.118 106.112,34.2 C106.112,32.562 104.838,31.792 103.382,31.386 L102.304,31.078 C101.296,30.798 101.226,30.294 101.226,30.056 C101.226,29.412 101.8,28.95 102.556,28.95 C103.396,28.95 103.872,29.482 103.872,30.168 L105.818,30.168 C105.818,28.334 104.418,27.228 102.598,27.228 C100.75,27.228 99.266,28.376 99.266,30.098 C99.266,30.966 99.644,32.24 101.758,32.8 L102.934,33.136 C103.76,33.388 104.152,33.766 104.152,34.298 C104.152,34.984 103.578,35.432 102.71,35.432 C101.814,35.432 101.142,34.858 101.128,34.158 L99.182,34.158 C99.182,35.866 100.596,37.126 102.654,37.126 Z M110.434,37 L110.434,31.89 L111.82,31.89 L111.82,30.476 L110.434,30.476 L110.434,28.082 L108.6,28.082 L108.6,30.476 L107.41,30.476 L107.41,31.89 L108.6,31.89 L108.6,37 L110.434,37 Z M116.492,37.126 C118.354,37.126 120.006,35.782 120.006,33.724 C120.006,31.652 118.354,30.308 116.492,30.308 C114.63,30.308 112.978,31.652 112.978,33.724 C112.978,35.782 114.63,37.126 116.492,37.126 Z M116.492,35.418 C115.582,35.418 114.84,34.732 114.84,33.724 C114.84,32.702 115.582,32.016 116.492,32.016 C117.402,32.016 118.144,32.702 118.144,33.724 C118.144,34.732 117.402,35.418 116.492,35.418 Z M123.782,37 L123.782,34.76 C123.782,32.898 124.426,32.03 125.364,32.03 C125.588,32.03 125.91,32.058 126.302,32.268 L126.722,30.518 C126.428,30.364 126.036,30.308 125.686,30.308 C124.874,30.308 124.132,30.77 123.768,31.862 L123.768,30.476 L121.948,30.476 L121.948,37 L123.782,37 Z M131.128,37.126 C132.276,37.126 133.424,36.678 134.04,35.852 L132.962,34.774 C132.57,35.236 131.912,35.502 131.254,35.502 C130.372,35.502 129.756,35.082 129.56,34.326 L134.488,34.326 C134.502,34.032 134.516,33.808 134.516,33.626 C134.516,31.624 132.99,30.308 131.128,30.308 C129.252,30.308 127.656,31.624 127.656,33.738 C127.656,35.754 129.126,37.126 131.128,37.126 Z M132.682,33.136 L129.56,33.136 C129.756,32.254 130.414,31.904 131.156,31.904 C131.982,31.904 132.626,32.366 132.682,33.136 Z" id="InAppStore" fill="#FFFFFF" fill-rule="nonzero"></path>
            </g>
        </g>
    </g>
</svg>