<?xml version="1.0" encoding="UTF-8"?>
<svg width="127px" height="40px" viewBox="0 0 127 40" version="1.1" xmlns="http://www.w3.org/2000/svg" xmlns:xlink="http://www.w3.org/1999/xlink">
    <title>logo_normal</title>
    <g id="Symbols" stroke="none" stroke-width="1" fill="none" fill-rule="evenodd">
        <g id="nav-/header" transform="translate(-205.000000, -25.000000)" fill="#191C20">
            <g id="Group" transform="translate(205.000000, 20.000000)">
                <g id="Group-2" transform="translate(0.000000, 5.000000)">
                    <path d="M116.711814,8.31647671 C118.958208,8.33612758 121.000184,8.91258644 122.837045,10.0454543 C124.595491,11.1589705 125.962861,12.6534343 126.940153,14.5288458 L124.390276,14.5288458 C122.514706,11.7940827 119.896192,10.4460528 116.53593,10.4849555 C114.034638,10.4849555 111.880527,11.3887959 110.073595,13.195579 C108.266065,15.002761 107.333368,17.1762273 107.274706,19.715579 C107.216045,22.3528857 108.119611,24.6339829 109.985603,26.557973 C111.851196,28.4824617 114.093399,29.4444568 116.711814,29.4444568 C118.235714,29.4444568 119.720307,29.0470503 121.166391,28.2516388 C122.553515,27.4952298 123.637853,26.5351301 124.419507,25.3712398 L126.940153,25.3712398 C125.9042,27.3248558 124.502411,28.8436588 122.734487,29.9278483 C120.965965,31.0121376 118.958208,31.5739331 116.711814,31.6128358 C113.526838,31.6523371 110.796188,30.5093944 108.520164,28.1842074 C106.243842,25.8596189 105.10593,23.085554 105.10593,19.8621126 C105.10593,16.5412149 106.249029,13.7770253 108.53493,11.5692448 C110.762368,9.38151412 113.48783,8.29722484 116.711814,8.31647671 Z M59.7085375,8.60950414 L69.2921989,31.1731949 L66.7762421,31.1731949 L63.5721109,23.5544418 L53.1239915,23.5544418 L49.9633576,31.1731949 L47.1064063,31.1731949 L57.1880913,8.60950414 L59.7085375,8.60950414 Z M86.81775,8.63883083 C89.3184428,8.63883083 91.3114349,9.32740938 92.7964271,10.704766 C94.2811199,12.0821226 95.0042119,13.8453146 94.9653038,15.9940428 C94.9258969,17.7522473 94.3296054,19.2714493 93.1757311,20.550751 C92.0216573,21.8304518 90.5943289,22.5484568 88.8930477,22.7045665 L88.2478717,22.7677086 L94.492321,31.1731949 L91.7121883,31.1731949 L84.0921883,20.9755889 L86.2902959,20.9755889 C88.2634349,20.9755889 89.826343,20.4678583 90.979519,19.4518982 C92.1320964,18.4362373 92.6692276,17.1566363 92.5913116,15.6130952 C92.53275,14.2065116 92.0243509,13.0637685 91.0674114,12.1846662 C90.0315583,11.2276588 88.6640885,10.748756 86.9643038,10.748756 L81.9233116,10.748756 L81.9233116,31.1731949 L79.6079809,31.1731949 L79.6079809,8.63883083 L86.81775,8.63883083 Z M58.4931086,11.221175 L54.1108603,21.5323969 L62.7765901,21.5323969 L58.4931086,11.221175 Z" id="Combined-Shape"></path>
                    <path d="M31.3948602,24.3331051 C29.9024855,24.3317086 28.841392,23.3546513 27.5994258,22.6178932 C26.3569607,21.8807361 24.987795,21.3602373 23.5697447,21.0840278 C20.6018555,20.5056737 17.4837211,21.0297635 14.8656056,22.5415839 C12.2162639,24.0714593 10.1895514,26.545574 9.21914375,29.4474194 C8.74117281,30.876746 8.50822309,32.4064218 8.57386802,33.9137535 C8.65717124,35.8262722 8.75593793,37.6484169 7.11671013,38.9696139 C5.72519716,40.0912099 3.73390101,40.2457236 2.18635663,39.3525565 C0.0967926084,38.1464717 -0.616921453,35.473953 0.589329136,33.3844767 C1.3601084,32.0494144 2.64287823,31.6700627 3.91028436,30.991559 C5.21370541,30.2939031 6.38773212,29.3098632 7.35135584,28.193155 C9.31471798,25.917943 10.407337,22.9734044 10.4076363,19.9686164 C10.4079356,17.0518084 9.38415396,14.2713595 7.4731681,12.0660727 C6.54206755,10.9916588 5.43987116,10.0737535 4.25187745,9.29639691 C2.93937784,8.43754404 1.41148703,7.97968868 0.585837385,6.55125975 C-0.619415561,4.46507522 0.0940989713,1.78966374 2.18386252,0.586471724 C4.27562136,-0.620111817 6.94611311,0.0948009012 8.15465828,2.1828807 C8.87116574,3.42078594 8.62384995,4.8469206 8.57676119,6.23684579 C8.52817595,7.66836699 8.75444147,9.1028807 9.20627415,10.4615839 C10.174487,13.3727061 12.2066866,15.8601874 14.8636104,17.3937535 C17.3569207,18.832756 20.2756261,19.3513595 23.1117266,18.8576937 C24.5526229,18.6068209 25.9455326,18.1100627 27.2371815,17.4269705 C28.6258012,16.6925066 29.7285962,15.5954493 31.3959576,15.5968458 C33.8055656,15.5970453 35.7635404,17.5536538 35.7615486,19.9662223 C35.7645381,22.3773944 33.8078602,24.3351999 31.3948602,24.3331051" id="Fill-7"></path>
                </g>
            </g>
        </g>
    </g>
</svg>