<?xml version="1.0" encoding="UTF-8"?>
<svg width="1680px" height="243px" viewBox="0 0 1680 243" version="1.1" xmlns="http://www.w3.org/2000/svg" xmlns:xlink="http://www.w3.org/1999/xlink">
    <title>waves_single@2x</title>
    <g id="webDesign_landingPage" stroke="none" stroke-width="1" fill="none" fill-rule="evenodd">
        <g id="landingPage_3.0_light" transform="translate(0.000000, -5961.000000)" fill="#DFE2E5">
            <path d="M1680,5961 L1680,6141.45049 C1668.46,6141.31961 1656.93,6141.27316 1645.39,6141.40404 C1583.64,6142.10911 1521.96,6144.92938 1461.55,6150.44747 C1400.83,6155.99089 1344.43,6165.92092 1286.98,6175.69475 C1207.84,6189.15433 1129.13,6199.87387 1043.57,6203.28521 C899.57,6209.02706 760.57,6179.29185 645.31,6145.8371 C604.5,6133.98607 568.46,6119.5681 530.31,6106.29851 C465.31,6083.66462 392.31,6064.82626 309.03,6057.28163 C259.94,6052.83592 209.6,6052.07174 159.63,6050.94871 C109.07,6049.80456 60.68,6046.30456 10.8,6043.26053 L0,6042.59768 L0,5961 L1680,5961 Z" id="waves_single" transform="translate(840.000000, 6082.500000) scale(-1, -1) translate(-840.000000, -6082.500000) "></path>
        </g>
    </g>
</svg>