<?xml version="1.0" encoding="UTF-8"?>
<svg width="1680px" height="803px" viewBox="0 0 1680 803" version="1.1" xmlns="http://www.w3.org/2000/svg" xmlns:xlink="http://www.w3.org/1999/xlink">
    <title>waves@2x</title>
    <defs>
        <filter id="filter-1">
            <feColorMatrix in="SourceGraphic" type="matrix" values="0 0 0 0 0.585947 0 0 0 0 0.633203 0 0 0 0 0.672583 0 0 0 0.600000 0"></feColorMatrix>
        </filter>
    </defs>
    <g id="webDesign_landingPage" stroke="none" stroke-width="1" fill="none" fill-rule="evenodd" opacity="0.3">
        <g id="waves" transform="translate(0.000000, -2935.000000)" filter="url(#filter-1)">
            <g transform="translate(0.000000, 2935.000000)">
                <path d="M0,1.10748364 C14.07,0.310142513 28.15,0.0338983434 41.82,-3.58230372e-13 C116.29,-0.154449954 191.76,7.05301157 261.82,23.2321303 C331.12,39.2291791 395.82,62.0193231 461.68,82.7753055 C501.92,95.476259 542.8,107.543107 585.34,116.916574 C639.693481,128.879211 696.28903,136.364683 753.71,139.185621 C817.28,142.324759 880.11,136.49224 943.47,134.545974 C1014.31,132.373691 1086.18,130.44626 1156.34,138.400836 C1226.5,146.355412 1285.34,166.653081 1340.48,194.315167 C1393.55,220.947617 1430.61,257.895274 1483.59,284.383323 C1512.15027,298.638082 1543.55224,310.491158 1577,319.642125 C1609,328.431712 1646.59,335.758461 1680,335.758461 L1680,673.898918 C1668.46,673.691556 1656.93,673.617976 1645.39,673.825338 C1583.64,674.942418 1521.96,679.410739 1461.55,688.153395 C1400.83,696.936186 1344.43,712.668955 1286.98,728.154227 C1207.84,749.479084 1129.13,766.462715 1043.57,771.86751 C899.57,780.964689 760.57,733.853342 645.31,680.848896 C604.5,662.072586 568.46,639.229302 530.31,618.205453 C465.31,582.345176 392.31,552.498402 309.03,540.544976 C259.94,533.501352 209.6,532.290624 159.63,530.511323 C109.07,528.698576 60.68,523.153311 10.8,518.330468 L0,517.280279 L0,1.10748364 Z" id="Combined-Shape" fill="#191C20"></path>
                <path d="M0,119.923352 C11.54,120.117788 23.07,120.186781 34.61,119.992345 C96.36,118.944901 158.04,114.755126 218.45,106.557466 C279.17,98.3221732 335.57,83.5701488 393.02,69.0501928 C472.16,49.0546767 550.87,33.1297659 636.43,28.0618936 C780.43,19.5318114 919.43,63.7063472 1034.69,113.40662 C1075.5,131.012459 1111.54,152.431746 1149.69,172.145017 C1214.69,205.769848 1287.69,233.756044 1370.97,244.964321 C1420.06,251.568862 1470.4,252.704116 1520.37,254.3725 C1570.93,256.072244 1619.32,261.271831 1669.2,265.794029 L1680,266.778752 L1680,800.818304 C1665.93,801.669075 1651.85,801.96383 1638.18,802 C1563.71,802.1648 1488.24,794.474364 1418.18,777.211077 C1348.88,760.142062 1284.18,735.824743 1218.32,713.677896 C1178.08,700.125847 1137.2,687.250397 1094.66,677.248811 C1040.30652,664.484553 983.71097,656.497477 926.29,653.487508 C862.72,650.138015 799.89,656.361373 736.53,658.438058 C665.69,660.755908 593.82,662.812496 523.66,654.324881 C453.5,645.837266 394.66,624.179445 339.52,594.663713 C286.45,566.246615 249.39,526.823084 196.41,498.560062 C167.849732,483.350088 136.447762,470.702734 103,460.938558 C71,451.559978 33.41,443.742261 0,443.742261 L0,119.923352 Z" id="Combined-Shape" fill="#191C20"></path>
            </g>
        </g>
    </g>
</svg>